<?xml version="1.0" encoding="UTF-8"?>
<svg id="Layer_1" data-name="Layer 1" xmlns="http://www.w3.org/2000/svg" viewBox="0 0 1920 1080">
  <path d="m934.46,56.11c0,10.3-.01,17.42,0,24.55.25,146.32,1.06,292.65.22,438.96-.03,5.72,1.38,18.12,7.23,32.64,7.16,17.76,17.69,29.06,23.08,34.74,26.27,27.66,60.47,37.21,75.13,40.48V55.59c42.63,21.36,82.02,40.07,120.06,61.21,5.98,3.33,8.11,17.67,8.17,26.95.86,132.82,1.07,265.65,1.43,398.48.11,42.48.73,84.97.06,127.44-.03,2.04-.85,8.17,2.21,14.63,15,31.69,101.79,34.56,120.02,3.17,4.78-8.23,3.52-16.97,3.51-19.5-.58-146.99-.26-293.99-.21-440.99,0-7.29,0-14.57,0-23.13,5.47.41,9.11-.33,11.63,1.02,35.66,19.05,71.5,37.81,106.4,58.18,5.9,3.44,10.76,14.05,10.77,21.37.34,152.39.16,304.78-1.02,457.16-.07,8.6-7.56,20.7-15.14,25.13-52.97,30.93-106.53,60.93-160.84,89.43-8.8,4.62-24.44,4.3-33.26-.47-131.01-70.89-261.33-143.04-392.06-214.44-12.43-6.79-16.6-15.37-16.57-29.07.36-155.08.63-310.17-.17-465.25-.11-20.7,6.94-31.87,25.46-40.15,34.16-15.28,67.38-32.68,103.87-50.62Z" style="stroke-width: 0px;"/>
  <path d="m1105.21,949.83c-39.7,24.58-74.7,47.21-110.9,67.73-6.11,3.46-18.67.11-26.08-3.99-134.46-74.44-268.71-149.27-402.47-224.97-7.43-4.2-14.39-16.69-14.44-25.35-.82-159.14-.69-318.29-.07-477.43.03-7.45,4.48-18.58,10.27-21.7,37.25-20.06,75.44-38.36,116.83-58.98.65,10.69,1.52,18.28,1.52,25.87-.02,143.63.58,287.27-.87,430.89-.28,28.27,9.81,43.66,33.8,57.43,123.35,70.77,245.74,143.2,368.43,215.12,6.82,4,13.32,8.53,23.98,15.4Z" style="stroke-width: 0px;"/>
</svg>