<?xml version="1.0" encoding="UTF-8" standalone="no" ?>
<!DOCTYPE svg PUBLIC "-//W3C//DTD SVG 1.1//EN" "http://www.w3.org/Graphics/SVG/1.1/DTD/svg11.dtd">
<svg xmlns="http://www.w3.org/2000/svg" xmlns:xlink="http://www.w3.org/1999/xlink" version="1.1" width="1080" height="1080" viewBox="0 0 1080 1080" xml:space="preserve">
<desc>Created with Fabric.js 5.2.4</desc>
<defs>
</defs>
<g transform="matrix(1 0 0 1 540 540)" id="1182a01e-d4c8-49e7-a242-6c9b72fd3151"  >
<rect style="stroke: none; stroke-width: 1; stroke-dasharray: none; stroke-linecap: butt; stroke-dashoffset: 0; stroke-linejoin: miter; stroke-miterlimit: 4; fill: rgb(255,255,255); fill-rule: nonzero; opacity: 1; visibility: hidden;" vector-effect="non-scaling-stroke"  x="-540" y="-540" rx="0" ry="0" width="1080" height="1080" />
</g>
<g transform="matrix(1 0 0 1 540 540)" id="069cccff-6d86-4001-8a85-23acf7cbc261"  >
</g>
<g transform="matrix(1 0 0 1 540 540)"  >
<g style="" vector-effect="non-scaling-stroke"   >
		<g transform="matrix(1 0 0 1 127.18 -79.78)"  >
<path style="stroke: none; stroke-width: 0; stroke-dasharray: none; stroke-linecap: butt; stroke-dashoffset: 0; stroke-linejoin: miter; stroke-miterlimit: 4; fill: rgb(255,255,0); fill-rule: nonzero; opacity: 1;" vector-effect="non-scaling-stroke"  transform=" translate(-1114.72, -457.51)" d="M 934.46 56.11 C 934.46 66.41 934.45 73.53 934.46 80.66 C 934.71 226.98 935.52 373.30999999999995 934.6800000000001 519.62 C 934.6500000000001 525.34 936.0600000000001 537.74 941.9100000000001 552.26 C 949.07 570.02 959.6000000000001 581.3199999999999 964.9900000000001 587 C 991.2600000000001 614.66 1025.46 624.21 1040.1200000000001 627.48 L 1040.1200000000001 55.59 C 1082.7500000000002 76.95 1122.14 95.66 1160.18 116.80000000000001 C 1166.16 120.13000000000001 1168.29 134.47000000000003 1168.3500000000001 143.75 C 1169.21 276.57 1169.42 409.4 1169.7800000000002 542.23 C 1169.89 584.71 1170.5100000000002 627.2 1169.8400000000001 669.6700000000001 C 1169.8100000000002 671.71 1168.9900000000002 677.84 1172.0500000000002 684.3000000000001 C 1187.0500000000002 715.9900000000001 1273.8400000000001 718.8600000000001 1292.0700000000002 687.47 C 1296.8500000000001 679.24 1295.5900000000001 670.5 1295.5800000000002 667.97 C 1295.0000000000002 520.98 1295.3200000000002 373.98 1295.3700000000001 226.98000000000002 C 1295.3700000000001 219.69000000000003 1295.3700000000001 212.41000000000003 1295.3700000000001 203.85000000000002 C 1300.8400000000001 204.26000000000002 1304.48 203.52 1307.0000000000002 204.87000000000003 C 1342.6600000000003 223.92000000000004 1378.5000000000002 242.68000000000004 1413.4000000000003 263.05 C 1419.3000000000004 266.49 1424.1600000000003 277.1 1424.1700000000003 284.42 C 1424.5100000000002 436.81 1424.3300000000004 589.2 1423.1500000000003 741.58 C 1423.0800000000004 750.1800000000001 1415.5900000000004 762.2800000000001 1408.0100000000002 766.71 C 1355.0400000000002 797.64 1301.4800000000002 827.64 1247.1700000000003 856.1400000000001 C 1238.3700000000003 860.7600000000001 1222.7300000000002 860.44 1213.9100000000003 855.6700000000001 C 1082.9000000000003 784.7800000000001 952.5800000000004 712.6300000000001 821.8500000000004 641.23 C 809.4200000000004 634.44 805.2500000000003 625.86 805.2800000000003 612.16 C 805.6400000000003 457.0799999999999 805.9100000000003 301.98999999999995 805.1100000000004 146.90999999999997 C 805.0000000000003 126.20999999999997 812.0500000000004 115.03999999999996 830.5700000000004 106.75999999999996 C 864.7300000000004 91.47999999999996 897.9500000000004 74.07999999999996 934.4400000000004 56.139999999999965 Z" stroke-linecap="round" />
</g>
		<g transform="matrix(1 0 0 1 -159.56 74.77)"  >
<path style="stroke: none; stroke-width: 0; stroke-dasharray: none; stroke-linecap: butt; stroke-dashoffset: 0; stroke-linejoin: miter; stroke-miterlimit: 4; fill: rgb(255,255,0); fill-rule: nonzero; opacity: 1;" vector-effect="non-scaling-stroke"  transform=" translate(-827.98, -612.07)" d="M 1105.21 949.83 C 1065.51 974.4100000000001 1030.51 997.0400000000001 994.3100000000001 1017.5600000000001 C 988.2 1021.0200000000001 975.6400000000001 1017.6700000000001 968.23 1013.57 C 833.77 939.1300000000001 699.52 864.3000000000001 565.76 788.6 C 558.33 784.4 551.37 771.91 551.3199999999999 763.25 C 550.4999999999999 604.11 550.6299999999999 444.96 551.2499999999999 285.82 C 551.2799999999999 278.37 555.7299999999999 267.24 561.5199999999999 264.12 C 598.7699999999999 244.06 636.9599999999998 225.76 678.3499999999999 205.14000000000001 C 678.9999999999999 215.83 679.8699999999999 223.42000000000002 679.8699999999999 231.01000000000002 C 679.8499999999999 374.64 680.4499999999999 518.28 678.9999999999999 661.9 C 678.7199999999999 690.17 688.8099999999998 705.56 712.7999999999998 719.3299999999999 C 836.1499999999999 790.0999999999999 958.5399999999998 862.53 1081.2299999999998 934.4499999999999 C 1088.0499999999997 938.4499999999999 1094.5499999999997 942.9799999999999 1105.2099999999998 949.8499999999999 Z" stroke-linecap="round" />
</g>
</g>
</g>
<g transform="matrix(NaN NaN NaN NaN 0 0)"  >
<g style=""   >
</g>
</g>
<g transform="matrix(NaN NaN NaN NaN 0 0)"  >
<g style=""   >
</g>
</g>
<g transform="matrix(NaN NaN NaN NaN 0 0)"  >
<g style=""   >
</g>
</g>
<g transform="matrix(NaN NaN NaN NaN 0 0)"  >
<g style=""   >
</g>
</g>
</svg>